<?xml version="1.0" encoding="utf-8"?>
<!-- Generator: Adobe Illustrator 26.0.1, SVG Export Plug-In . SVG Version: 6.00 Build 0)  -->
<svg version="1.1" id="Layer_1" xmlns="http://www.w3.org/2000/svg" xmlns:xlink="http://www.w3.org/1999/xlink" x="0px" y="0px"
	 viewBox="0 0 409.7 239.4" style="enable-background:new 0 0 409.7 239.4;" xml:space="preserve">
<style type="text/css">
	.st0{display:none;}
	.st1{display:inline;fill:#F5F5F5;}
	.st2{opacity:0.35;fill:#3A3A3A;enable-background:new    ;}
	.st3{fill:#F5F5F5;}
	.st4{fill:#E0E0E0;}
	.st5{fill:#E8505B;}
</style>
<g id="Background_Simple" class="st0">
	<path class="st1" d="M320.6,376.9c55.4-6.6,117.4-44.2,125.8-93.2c4.9-28.3-0.4-60.9-22.9-78.8c-20.3-16.2-49.5-16.1-74.4-8.5
		c-21.8,6.7-44.5,18.7-66.2,11.6c-18.9-6.1-30.6-24.9-37.5-43.4c-7-18.6-11-38.6-22.1-55C202,78.1,156.2,67.8,121.7,83.7
		c-34.6,15.8-56.3,53.9-56.8,92c-0.4,38,2.8,62.2,19.1,105.6C84.1,281.2,121.7,400.5,320.6,376.9z"/>
</g>
<g id="Floor">
</g>
<g id="Notes">
	<g>
		<path class="st2" d="M8.3,10.4L8.3,25.5c2.2-2,5.2-3.1,8.4-3.1c7.1,0,12.9,5.9,12.9,13s-5.7,12.9-12.8,13c-3.2,0-6.1-1.2-8.5-3
			L8.2,60.5c2.2-2,5.2-3.1,8.4-3.1c7.1,0,12.9,5.9,12.9,13c0,7.1-5.7,12.9-12.8,13c-3.2,0-6.1-1.2-8.5-3L8.2,95.4
			c2.2-2,5.2-3.1,8.4-3.1c7.1,0,12.9,5.9,12.9,13s-5.7,12.9-12.8,13c-3.2,0-6.1-1.2-8.5-3l-0.1,15.1c2.2-2,5.2-3.1,8.4-3.1
			c7.1,0,12.9,5.9,12.9,13c0,7.1-5.7,12.9-12.8,13c-3.2,0-6.1-1.2-8.5-3l-0.1,15.1c2.2-2,5.2-3.1,8.4-3.1c7.1,0,12.9,5.9,12.9,13
			c0,7.1-5.7,12.9-12.8,13c-3.2,0-6.1-1.2-8.5-3l-0.1,15.1c2.2-2,5.2-3.1,8.4-3.1c7.1,0,12.9,5.9,12.9,13s-5.7,12.9-12.8,13
			c-3.2,0-6.1-1.2-8.5-3l0.1,9.3l401.4,11.2L401.4,5.9L8.3,10.4z"/>
		<g>
			<g>
				<g>
					<path class="st3" d="M-0.1,0.3l-0.1,15.1c2.2-2,5.2-3.1,8.4-3.1c7.1,0,12.9,5.9,12.9,13s-5.7,12.9-12.8,13
						c-3.2,0-6.1-1.2-8.5-3l-0.1,15.1c2.2-2,5.2-3.1,8.4-3.1c7.1,0,12.9,5.9,12.9,13c0,7.1-5.7,12.9-12.8,13c-3.2,0-6.1-1.2-8.5-3
						l-0.1,15.1c2.2-2,5.2-3.1,8.4-3.1c7.1,0,12.9,5.9,12.9,13c0,7.1-5.7,12.9-12.8,13c-3.2,0-6.1-1.2-8.5-3l-0.1,15.1
						c2.2-2,5.2-3.1,8.4-3.1c7.1,0,12.9,5.9,12.9,13c0,7.1-5.7,12.9-12.8,13c-3.2,0-6.1-1.2-8.5-3l-0.1,15.1c2.2-2,5.2-3.1,8.4-3.1
						c7.1,0,12.9,5.9,12.9,13c0,7.1-5.7,12.9-12.8,13c-3.2,0-6.1-1.2-8.5-3l-0.1,15.1c2.2-2,5.2-3.1,8.4-3.1c7.1,0,12.9,5.9,12.9,13
						S15.3,213,8.2,213c-3.2,0-6.1-1.2-8.5-3l0.1,9.3l402.2-0.6L401.6,0.1L-0.1,0.3z"/>
				</g>
				<g>
					<g>
						<path class="st4" d="M401.8,43c0,0.2-89.9,0.5-200.9,0.7S0,43.8,0,43.6s89.9-0.5,200.9-0.7C311.8,42.7,401.8,42.6,401.8,43z"
							/>
					</g>
				</g>
				<g>
					<g>
						<path class="st4" d="M401.9,78c0,0.2-89.9,0.5-200.9,0.7C89.9,79,0.1,78.8,0.1,78.6c0-0.2,89.9-0.5,200.9-0.7
							C311.8,77.6,401.9,77.6,401.9,78z"/>
					</g>
				</g>
				<g>
					<g>
						<path class="st4" d="M401.9,112.9c0,0.2-89.9,0.5-200.9,0.7S0.2,113.6,0.2,113.5s89.9-0.5,200.9-0.7
							C311.8,112.6,401.9,112.7,401.9,112.9z"/>
					</g>
				</g>
				<g>
					<g>
						<path class="st4" d="M401.9,147.9c0,0.2-89.9,0.5-200.9,0.7c-111,0.2-200.9,0-200.9-0.2c0-0.2,89.9-0.5,200.9-0.7
							C311.9,147.7,401.9,147.7,401.9,147.9z"/>
					</g>
				</g>
				<g>
					<g>
						<path class="st4" d="M402,183c0,0.2-89.9,0.5-200.9,0.7c-111,0.2-200.9-0.1-200.9-0.2s89.9-0.5,200.9-0.7
							C311.9,182.7,402,182.6,402,183z"/>
					</g>
				</g>
				<g>
					
						<rect x="55.4" y="0.1" transform="matrix(1 -1.350560e-03 1.350560e-03 1 -0.1478 7.559340e-02)" class="st5" width="0.9" height="218.7"/>
				</g>
				<g>
					<g>
						<path class="st4" d="M92.5,218.9c-0.2,0-0.6-49-0.6-109.4C91.8,49.1,92,0.2,92.2,0.2c0.2,0,0.6,49,0.6,109.4
							C92.8,169.9,92.7,218.9,92.5,218.9z"/>
					</g>
				</g>
				<g>
					<g>
						<path class="st4" d="M21,218.9c-0.2,0-0.6-49-0.6-109.4c-0.1-60.3,0-109.2,0.2-109.2s0.6,49,0.6,109.4
							C21.3,169.9,21.2,218.9,21,218.9z"/>
					</g>
				</g>
				<g>
					<g>
						<path class="st4" d="M131.6,218.8c-0.2,0-0.6-49-0.6-109.4C130.9,49,131,0.1,131.2,0.1c0.2,0,0.6,49,0.6,109.4
							C132.1,169.9,132,218.8,131.6,218.8z"/>
					</g>
				</g>
				<g>
					<g>
						<path class="st4" d="M170.8,218.9c-0.2,0-0.6-49-0.6-109.4c-0.1-60.4,0.1-109.3,0.3-109.3c0.2,0,0.6,49,0.6,109.4
							C171.2,169.7,171,218.7,170.8,218.9z"/>
					</g>
				</g>
				<g>
					<g>
						<path class="st4" d="M209.9,218.6c-0.2,0-0.6-49-0.6-109.4c-0.1-60.4,0.1-109.3,0.3-109.3s0.6,49,0.6,109.4
							C210.4,169.7,210.3,218.6,209.9,218.6z"/>
					</g>
				</g>
				<g>
					<g>
						<path class="st4" d="M249.1,218.6c-0.2,0-0.6-49-0.6-109.4c-0.1-60.4,0.1-109.3,0.3-109.3s0.6,49,0.6,109.4
							C249.7,169.7,249.3,218.6,249.1,218.6z"/>
					</g>
				</g>
				<g>
					<g>
						<path class="st4" d="M288.4,218.6c-0.2,0-0.6-49-0.6-109.4c-0.1-60.4,0.1-109.3,0.3-109.3s0.6,49,0.6,109.4
							C288.7,169.6,288.6,218.6,288.4,218.6z"/>
					</g>
				</g>
				<g>
					<g>
						<path class="st4" d="M327.4,218.6c-0.2,0-0.6-49-0.6-109.4c-0.1-60.4,0.1-109.3,0.3-109.3s0.6,49,0.6,109.4
							C327.9,169.7,327.8,218.6,327.4,218.6z"/>
					</g>
				</g>
				<g>
					<g>
						<path class="st4" d="M366.7,218.4c-0.2,0-0.6-49-0.6-109.4C366,48.6,366.2-0.4,366.4-0.4s0.6,49,0.6,109.4
							C367.1,169.4,366.9,218.4,366.7,218.4z"/>
					</g>
				</g>
			</g>
		</g>
	</g>
</g>
<g id="Character">
</g>
<g id="Plant">
</g>
</svg>
